:SAMPLES-PER-SECOND 30
:FULLY-SPECIFIED
:DEGREES
223
root  61.6929 38.9604 -19.8402 11.1111 16.4341 1.4319
RightUpLeg  -30.4171 -12.9766 -1.56218
RightLeg  16.1586 -18.9011 2.49867
RightFoot  3.82775 1.20641 -8.83845
RightToes  0.00048216 0.542163 -0.142577
Spine  51.1898 -2.49228 9.81144
Spine1  3.61207 -0.165229 2.69819
HEad  -22.2079 -6.28884 2.7179
LeftShoulder1  11.8641 -21.5233 -41.0201
LeftArm  -4.31015 -21.2312 -29.2642
LeftForeArm  28.9766 -6.05237 -8.976
LeftHand  -0.25398 0.0180481 5.50724
RightShoulder  5.80611 13.5304 28.0612
RightArm  -0.319756 33.2952 32.5883
RightForeArm  1.57399 6.3143 10.6309
RightHand  -1.84906 5.63924 -19.6667
LeftUpLeg  -31.8375 3.48733 -7.54578
LeftLeg  36.2528 49.6281 31.1637
LeftFoot  -3.40818 -0.174541 2.8163
LeftToes  1.06248e-005 4.65856e-005 -8.18499e-006
224
root  61.9966 39.0134 -19.9492 9.16106 16.2074 1.2662
RightUpLeg  -27.7132 -12.0276 -2.73419
RightLeg  14.999 -19.8765 2.82982
RightFoot  4.167 1.15646 -8.2629
RightToes  0.00048216 0.542163 -0.142577
Spine  49.7311 -2.48119 10.0354
Spine1  2.64578 -0.135136 2.8204
HEad  -19.6048 -6.29659 1.68085
LeftShoulder1  11.8768 -20.681 -42.6207
LeftArm  -0.509172 -16.1766 -28.0779
LeftForeArm  28.5686 -8.60015 -9.27213
LeftHand  -0.25398 0.0180481 5.50724
RightShoulder  5.99076 13.2403 29.7974
RightArm  1.72397 27.7983 31.3917
RightForeArm  0.899423 7.36717 10.7492
RightHand  -1.70961 5.15165 -19.0337
LeftUpLeg  -29.8467 -0.495491 -5.79373
LeftLeg  52.316 59.0114 50.1017
LeftFoot  -2.61182 -0.313323 4.30079
LeftToes  1.06248e-005 4.65856e-005 -8.18499e-006
225
root  62.3378 39.057 -20.0853 7.70193 15.8441 1.13055
RightUpLeg  -25.7922 -11.6175 -3.48632
RightLeg  14.0388 -19.7829 2.97673
RightFoot  4.74093 1.10563 -7.58002
RightToes  0.00048216 0.542163 -0.142577
Spine  47.0548 -2.16525 10.0965
Spine1  2.81753 0.0220323 3.00482
HEad  -16.5017 -6.62491 0.845703
LeftShoulder1  12.0804 -20.3182 -44.1088
LeftArm  3.7335 -11.6603 -26.7684
LeftForeArm  26.9158 -11.2007 -8.93695
LeftHand  -0.25398 0.0180481 5.50724
RightShoulder  6.16337 12.9104 31.5873
RightArm  3.88809 22.651 29.7347
RightForeArm  0.000199229 8.64503 10.7045
RightHand  -1.59311 4.67457 -18.5774
LeftUpLeg  -28.0187 -3.2031 -4.82259
LeftLeg  71.3144 63.7164 71.4976
LeftFoot  -0.786057 -0.562376 6.13344
LeftToes  1.06248e-005 4.65856e-005 -8.18499e-006
226
root  62.695 39.1086 -20.2559 6.22673 15.2742 0.872513
RightUpLeg  -23.9376 -11.3134 -3.89351
RightLeg  12.9106 -19.245 3.00905
RightFoot  5.6668 1.09288 -7.03557
RightToes  0.00048216 0.542163 -0.142577
Spine  44.577 -1.96931 9.75107
Spine1  2.88359 0.0108597 3.08012
HEad  -12.7248 -6.32864 0.111622
LeftShoulder1  12.034 -19.754 -45.0584
LeftArm  7.77965 -7.05885 -25.6137
LeftForeArm  24.0456 -14.0773 -7.92912
LeftHand  -0.25398 0.0180481 5.50724
RightShoulder  6.35063 12.8517 32.8741
RightArm  6.47957 17.7701 28.6751
RightForeArm  -1.09688 9.89344 10.5929
RightHand  -1.47778 4.20238 -18.0847
LeftUpLeg  -25.8474 -5.03175 -4.27851
LeftLeg  89.607 65.3391 91.6937
LeftFoot  1.55139 -1.0589 9.20909
LeftToes  1.06248e-005 4.65856e-005 -8.18499e-006
227
root  63.081 39.1623 -20.4638 4.69469 14.5198 0.548325
RightUpLeg  -21.9652 -10.9181 -4.19131
RightLeg  11.4352 -18.6629 3.11086
RightFoot  6.78879 1.09438 -6.55602
RightToes  0.00048216 0.542163 -0.142577
Spine  42.3357 -1.78672 9.05083
Spine1  3.03127 -0.118711 3.37112
HEad  -9.26009 -5.51038 -0.880137
LeftShoulder1  11.854 -19.0798 -45.7436
LeftArm  10.6222 -2.8627 -24.668
LeftForeArm  20.9915 -16.8485 -6.53987
LeftHand  -0.25398 0.0180481 5.50724
RightShoulder  6.33749 12.6845 33.1946
RightArm  9.42049 13.4747 28.5164
RightForeArm  -2.48331 11.1233 10.4097
RightHand  -1.42598 4.01333 -17.8049
LeftUpLeg  -23.2757 -6.7025 -3.96168
LeftLeg  106.389 65.444 109.953
LeftFoot  4.18063 -1.95497 14.0575
LeftToes  1.06248e-005 4.65856e-005 -8.18499e-006
